<?xml version="1.0" encoding="UTF-8"?>
<!DOCTYPE svg PUBLIC "-//W3C//DTD SVG 1.1//EN" "http://www.w3.org/Graphics/SVG/1.1/DTD/svg11.dtd">
<svg xmlns="http://www.w3.org/2000/svg" version="1.1" width="512px" height="512px" style="shape-rendering:geometricPrecision; text-rendering:geometricPrecision; image-rendering:optimizeQuality; fill-rule:evenodd; clip-rule:evenodd" xmlns:xlink="http://www.w3.org/1999/xlink">
<g><path style="opacity:0.964" fill="#000000" d="M 54.5,24.5 C 188.5,24.3333 322.5,24.5 456.5,25C 472.667,29.1667 482.833,39.3333 487,55.5C 487.667,165.167 487.667,274.833 487,384.5C 482.52,401.979 471.353,412.146 453.5,415C 437.5,415.667 421.5,415.667 405.5,415C 398.752,411.657 396.919,406.49 400,399.5C 401.167,398.333 402.333,397.167 403.5,396C 420.538,395.911 437.538,395.244 454.5,394C 461.097,391.737 465.264,387.237 467,380.5C 467.5,295.501 467.667,210.501 467.5,125.5C 326.167,125.5 184.833,125.5 43.5,125.5C 43.3333,210.501 43.5,295.501 44,380.5C 47.0129,389.267 53.1795,394.1 62.5,395C 135.167,395.333 207.833,395.667 280.5,396C 286.206,399.456 287.706,404.289 285,410.5C 283.363,412.81 281.196,414.31 278.5,415C 204.833,415.667 131.167,415.667 57.5,415C 39.6468,412.146 28.4801,401.979 24,384.5C 23.3333,274.5 23.3333,164.5 24,54.5C 28.7881,38.8774 38.9547,28.8774 54.5,24.5 Z M 58.5,44.5 C 103.167,44.5 147.833,44.5 192.5,44.5C 192.5,64.8333 192.5,85.1667 192.5,105.5C 142.833,105.5 93.1667,105.5 43.5,105.5C 43.3334,90.163 43.5001,74.8297 44,59.5C 46.3509,51.9841 51.1842,46.9841 58.5,44.5 Z M 212.5,44.5 C 292.501,44.3333 372.501,44.5 452.5,45C 460,47.1667 464.833,52 467,59.5C 467.5,74.8297 467.667,90.163 467.5,105.5C 382.5,105.5 297.5,105.5 212.5,105.5C 212.5,85.1667 212.5,64.8333 212.5,44.5 Z M 341.5,163.5 C 380.856,165.667 408.19,184.833 423.5,221C 435.734,262.964 424.401,296.964 389.5,323C 345.912,346.415 307.412,339.915 274,303.5C 252.212,272.405 250.212,240.072 268,206.5C 285.141,179.677 309.641,165.343 341.5,163.5 Z M 82.5,164.5 C 91.5,164.5 100.5,164.5 109.5,164.5C 109.5,173.5 109.5,182.5 109.5,191.5C 100.5,191.5 91.5,191.5 82.5,191.5C 82.5,182.5 82.5,173.5 82.5,164.5 Z M 82.5,246.5 C 91.5,246.5 100.5,246.5 109.5,246.5C 109.5,255.5 109.5,264.5 109.5,273.5C 100.5,273.5 91.5,273.5 82.5,273.5C 82.5,264.5 82.5,255.5 82.5,246.5 Z M 99.5,328.5 C 102.833,328.5 106.167,328.5 109.5,328.5C 109.5,337.833 109.5,347.167 109.5,356.5C 100.5,356.5 91.5,356.5 82.5,356.5C 82.5,347.5 82.5,338.5 82.5,329.5C 88.358,329.822 94.0247,329.489 99.5,328.5 Z"/></g>
<g><path style="opacity:0.904" fill="#000000" d="M 75.5,64.5 C 84.3883,62.6609 90.055,65.9942 92.5,74.5C 91.9852,77.7427 90.6519,80.5761 88.5,83C 83.6178,84.5547 78.6178,84.888 73.5,84C 67.8338,79.836 66.6671,74.6693 70,68.5C 71.4998,66.5313 73.3331,65.198 75.5,64.5 Z"/></g>
<g><path style="opacity:0.907" fill="#000000" d="M 113.5,64.5 C 125.531,62.7257 130.698,67.7257 129,79.5C 127.833,81.3333 126.333,82.8333 124.5,84C 120.167,84.6667 115.833,84.6667 111.5,84C 105.831,80.4876 104.331,75.6543 107,69.5C 108.805,67.1743 110.972,65.5077 113.5,64.5 Z"/></g>
<g><path style="opacity:0.902" fill="#000000" d="M 150.5,64.5 C 155.734,63.8346 160.568,64.8346 165,67.5C 168.915,73.7612 168.082,79.2612 162.5,84C 158.167,84.6667 153.833,84.6667 149.5,84C 142.983,79.7554 141.817,74.2554 146,67.5C 147.652,66.6006 149.152,65.6006 150.5,64.5 Z"/></g>
<g><path style="opacity:0.959" fill="#000000" d="M 254.5,64.5 C 311.501,64.3333 368.501,64.5 425.5,65C 432.248,68.3432 434.081,73.5099 431,80.5C 429.786,82.0488 428.286,83.2155 426.5,84C 368.5,84.6667 310.5,84.6667 252.5,84C 247.404,79.7515 246.237,74.5849 249,68.5C 250.812,67.0229 252.645,65.6896 254.5,64.5 Z"/></g>
<g><path style="opacity:0.942" fill="#000000" d="M 78.5,143.5 C 90.1714,143.333 101.838,143.5 113.5,144C 121.155,145.655 126.321,150.155 129,157.5C 129.667,170.833 129.667,184.167 129,197.5C 127.167,204.667 122.667,209.167 115.5,211C 102.5,211.667 89.5,211.667 76.5,211C 68.1137,208.614 63.2804,203.114 62,194.5C 61.3333,183.167 61.3333,171.833 62,160.5C 62.8558,156.456 64.5224,152.789 67,149.5C 70.5748,146.798 74.4081,144.798 78.5,143.5 Z M 82.5,164.5 C 82.5,173.5 82.5,182.5 82.5,191.5C 91.5,191.5 100.5,191.5 109.5,191.5C 109.5,182.5 109.5,173.5 109.5,164.5C 100.5,164.5 91.5,164.5 82.5,164.5 Z"/></g>
<g><path style="opacity:0.943" fill="#000000" d="M 334.5,143.5 C 382.902,142.804 418.068,163.804 440,206.5C 458.49,256.034 448.323,298.534 409.5,334C 400.215,341.448 389.881,346.948 378.5,350.5C 379.245,381.34 380.245,412.173 381.5,443C 381.622,469.373 368.622,483.873 342.5,486.5C 323.913,485.956 311.413,476.956 305,459.5C 303.927,453.397 303.427,447.23 303.5,441C 304.489,410.83 305.489,380.663 306.5,350.5C 275.343,339.511 253.843,318.511 242,287.5C 226.651,235.549 240.484,193.383 283.5,161C 299.234,151.116 316.234,145.283 334.5,143.5 Z M 341.5,163.5 C 309.641,165.343 285.141,179.677 268,206.5C 250.212,240.072 252.212,272.405 274,303.5C 307.412,339.915 345.912,346.415 389.5,323C 424.401,296.964 435.734,262.964 423.5,221C 408.19,184.833 380.856,165.667 341.5,163.5 Z M 326.5,356.5 C 337.167,357.833 347.833,357.833 358.5,356.5C 359.245,387.525 360.079,418.525 361,449.5C 356.365,465.233 346.531,469.733 331.5,463C 327.619,460.072 325.119,456.239 324,451.5C 324.566,419.837 325.4,388.17 326.5,356.5 Z"/></g>
<g><path style="opacity:0.947" fill="#000000" d="M 158.5,154.5 C 182.502,154.333 206.502,154.5 230.5,155C 237.283,158.401 239.116,163.567 236,170.5C 234.786,172.049 233.286,173.215 231.5,174C 206.833,174.667 182.167,174.667 157.5,174C 150.983,169.755 149.817,164.255 154,157.5C 155.652,156.601 157.152,155.601 158.5,154.5 Z"/></g>
<g><path style="opacity:0.946" fill="#000000" d="M 157.5,191.5 C 178.503,191.333 199.503,191.5 220.5,192C 226.39,195.78 227.89,200.947 225,207.5C 223.786,209.049 222.286,210.215 220.5,211C 199.5,211.667 178.5,211.667 157.5,211C 151.61,207.22 150.11,202.053 153,195.5C 154.397,193.93 155.897,192.596 157.5,191.5 Z"/></g>
<g><path style="opacity:0.935" fill="#000000" d="M 383.5,216.5 C 393.12,217.077 396.954,222.077 395,231.5C 375.833,252 356,271.833 335.5,291C 327.989,294.573 320.655,294.239 313.5,290C 306,282.5 298.5,275 291,267.5C 287.235,255.848 291.402,250.681 303.5,252C 310.803,258.302 317.803,264.968 324.5,272C 325.167,272.667 325.833,272.667 326.5,272C 345.115,252.882 364.115,234.382 383.5,216.5 Z"/></g>
<g><path style="opacity:0.943" fill="#000000" d="M 75.5,226.5 C 88.8375,226.333 102.171,226.5 115.5,227C 122.667,228.833 127.167,233.333 129,240.5C 129.667,253.833 129.667,267.167 129,280.5C 126.187,288.315 120.687,292.815 112.5,294C 69.6667,303.167 52.8333,286.333 62,243.5C 63.3819,235.292 67.8819,229.625 75.5,226.5 Z M 82.5,246.5 C 82.5,255.5 82.5,264.5 82.5,273.5C 91.5,273.5 100.5,273.5 109.5,273.5C 109.5,264.5 109.5,255.5 109.5,246.5C 100.5,246.5 91.5,246.5 82.5,246.5 Z"/></g>
<g><path style="opacity:0.945" fill="#000000" d="M 157.5,237.5 C 175.503,237.333 193.503,237.5 211.5,238C 218.054,242.494 219.054,247.994 214.5,254.5C 213.335,255.584 212.002,256.417 210.5,257C 193.167,257.667 175.833,257.667 158.5,257C 151.752,253.657 149.919,248.49 153,241.5C 154.397,239.93 155.897,238.596 157.5,237.5 Z"/></g>
<g><path style="opacity:0.912" fill="#000000" d="M 159.5,273.5 C 177.503,273.333 195.503,273.5 213.5,274C 220.032,276.229 222.532,280.729 221,287.5C 219.413,290.756 216.913,292.923 213.5,294C 195.5,294.667 177.5,294.667 159.5,294C 151.971,291.107 149.805,285.94 153,278.5C 154.805,276.174 156.972,274.508 159.5,273.5 Z"/></g>
<g><path style="opacity:0.945" fill="#000000" d="M 78.5,308.5 C 90.1714,308.333 101.838,308.5 113.5,309C 121.155,310.655 126.321,315.155 129,322.5C 129.667,335.833 129.667,349.167 129,362.5C 127.167,369.667 122.667,374.167 115.5,376C 102.5,376.667 89.5,376.667 76.5,376C 68.1137,373.614 63.2804,368.114 62,359.5C 61.3333,348.167 61.3333,336.833 62,325.5C 62.8558,321.456 64.5224,317.789 67,314.5C 70.5748,311.798 74.4081,309.798 78.5,308.5 Z M 99.5,328.5 C 94.0247,329.489 88.358,329.822 82.5,329.5C 82.5,338.5 82.5,347.5 82.5,356.5C 91.5,356.5 100.5,356.5 109.5,356.5C 109.5,347.167 109.5,337.833 109.5,328.5C 106.167,328.5 102.833,328.5 99.5,328.5 Z"/></g>
<g><path style="opacity:0.95" fill="#000000" d="M 158.5,319.5 C 182.502,319.333 206.502,319.5 230.5,320C 237.283,323.401 239.116,328.567 236,335.5C 234.786,337.049 233.286,338.215 231.5,339C 206.833,339.667 182.167,339.667 157.5,339C 150.983,334.755 149.817,329.255 154,322.5C 155.652,321.601 157.152,320.601 158.5,319.5 Z"/></g>
<g><path style="opacity:0.954" fill="#000000" d="M 157.5,356.5 C 194.168,356.333 230.835,356.5 267.5,357C 273.39,360.78 274.89,365.947 272,372.5C 270.786,374.049 269.286,375.215 267.5,376C 230.833,376.667 194.167,376.667 157.5,376C 151.61,372.22 150.11,367.053 153,360.5C 154.397,358.93 155.897,357.596 157.5,356.5 Z"/></g>
</svg>
