<?xml version="1.0" standalone="no"?>
<!DOCTYPE svg PUBLIC "-//W3C//DTD SVG 20010904//EN"
 "http://www.w3.org/TR/2001/REC-SVG-20010904/DTD/svg10.dtd">
<svg version="1.0" xmlns="http://www.w3.org/2000/svg"
 width="512.000000pt" height="512.000000pt" viewBox="0 0 512.000000 512.000000"
 preserveAspectRatio="xMidYMid meet">

<g transform="translate(0.000000,512.000000) scale(0.100000,-0.100000)"
fill="#000000" stroke="none">
<path d="M343 5106 c-106 -34 -195 -118 -228 -215 -13 -41 -16 -85 -13 -258 3
-197 4 -211 27 -258 49 -99 154 -175 264 -190 l47 -7 0 -1449 0 -1449 -63 0
c-165 0 -277 -104 -277 -256 0 -71 17 -119 62 -169 48 -55 101 -78 193 -84
l80 -6 6 -195 c3 -107 6 -196 7 -197 1 -1 15 -9 32 -18 25 -13 142 -15 930
-15 l900 0 0 85 0 85 -850 0 -850 0 0 130 0 130 526 0 525 0 188 95 c189 95
211 112 211 163 0 39 -39 66 -221 157 l-189 95 -520 0 -520 0 0 1450 0 1450
1663 2 1662 3 57 28 c72 35 134 97 167 167 24 50 26 69 29 201 l4 146 -32 26
c-31 26 -35 27 -171 27 l-139 0 0 -85 0 -85 85 0 85 0 0 -60 c0 -75 -17 -116
-63 -157 -64 -56 -158 -52 -226 10 -44 41 -51 75 -51 246 0 170 6 199 48 245
48 51 73 56 295 56 194 0 206 -1 248 -23 27 -15 52 -38 66 -63 l23 -39 0
-1002 0 -1003 85 0 85 0 -2 1028 -3 1027 -23 46 c-37 75 -87 125 -160 161
l-67 33 -1945 2 c-1589 1 -1953 -1 -1987 -11z m3202 -173 c-30 -71 -35 -116
-35 -285 0 -153 3 -187 20 -235 11 -32 20 -59 20 -60 0 -2 -712 -2 -1583 -1
l-1583 3 -41 27 c-68 45 -75 71 -71 281 3 174 4 184 27 216 13 18 42 42 65 52
39 18 102 19 1615 19 1494 0 1573 -1 1566 -17z m-2167 -3910 l3 -83 -531 0
-531 0 -24 25 c-42 41 -32 105 20 134 14 7 177 10 540 8 l520 -2 3 -82z m322
43 l85 -43 -83 -42 c-49 -25 -95 -41 -117 -41 l-35 0 0 85 0 85 33 -1 c17 0
70 -19 117 -43z"/>
<path d="M4020 3415 l0 -685 85 0 85 0 0 685 0 685 -85 0 -85 0 0 -685z"/>
<path d="M1455 3919 c-157 -14 -294 -63 -430 -154 -106 -71 -165 -134 -165
-177 0 -30 32 -64 328 -361 l328 -328 463 3 463 3 19 24 c15 18 19 39 19 98 0
185 -78 391 -208 551 l-44 54 58 59 58 59 538 0 538 0 0 90 0 91 -570 -3 -570
-3 -87 -87 c-49 -49 -91 -88 -95 -88 -4 0 -35 18 -70 39 -162 101 -369 148
-573 130z m257 -184 c68 -14 258 -97 258 -113 0 -4 -49 -57 -110 -117 -60 -60
-110 -114 -110 -120 0 -5 26 -34 57 -63 l57 -53 122 122 122 121 42 -53 c75
-95 126 -213 155 -356 l7 -33 -364 0 -363 0 -259 259 -258 258 43 30 c51 35
141 82 184 95 123 40 291 49 417 23z"/>
<path d="M3594 3917 c-3 -8 -4 -47 -2 -88 l3 -74 85 0 85 0 0 85 0 85 -83 3
c-63 2 -84 0 -88 -11z"/>
<path d="M100 2985 l0 -856 83 3 82 3 3 853 2 852 -85 0 -85 0 0 -855z"/>
<path d="M2740 3495 l0 -85 85 0 85 0 0 85 0 85 -85 0 -85 0 0 -85z"/>
<path d="M3080 3495 l0 -85 343 2 342 3 3 83 3 82 -346 0 -345 0 0 -85z"/>
<path d="M2740 3155 l0 -85 513 2 512 3 3 83 3 82 -516 0 -515 0 0 -85z"/>
<path d="M3363 2888 c-27 -13 -27 -15 -73 -186 l-35 -134 -52 -18 c-29 -10
-77 -30 -108 -44 l-54 -25 -124 75 c-90 54 -133 74 -158 74 -32 0 -50 -15
-193 -160 -189 -189 -184 -167 -76 -345 64 -106 71 -123 62 -145 -6 -14 -25
-61 -43 -105 -19 -44 -34 -82 -36 -83 -1 -2 -63 -19 -138 -38 -75 -19 -145
-40 -156 -47 -34 -21 -41 -72 -37 -279 4 -246 -8 -229 189 -278 l141 -35 35
-85 c19 -47 39 -96 45 -110 9 -22 2 -40 -66 -151 -47 -79 -76 -138 -76 -155 0
-23 29 -57 158 -186 140 -141 161 -158 191 -158 24 0 69 22 157 75 l124 74 57
-26 c32 -14 81 -33 108 -43 l50 -17 37 -144 c52 -201 33 -189 303 -189 270 0
251 -12 303 189 36 139 38 145 67 154 17 5 64 25 106 44 l75 34 126 -75 c89
-54 135 -76 159 -76 29 0 50 18 186 153 110 110 154 160 159 182 4 25 -8 52
-71 158 -44 75 -75 136 -72 145 3 10 23 60 45 112 l39 94 141 36 c83 21 149
43 161 54 20 18 21 29 21 246 0 222 0 227 -22 248 -15 13 -71 33 -161 55 -76
19 -140 37 -142 39 -1 1 -17 39 -35 83 -17 44 -36 92 -42 106 -10 22 -3 39 66
154 42 71 76 140 76 154 0 18 -38 63 -157 183 -193 194 -175 190 -352 84
l-124 -75 -31 16 c-17 9 -65 28 -106 43 l-75 28 -37 143 c-52 201 -33 189
-301 188 -129 0 -221 -5 -234 -11z m386 -292 c38 -155 44 -163 146 -196 39
-12 105 -40 148 -61 43 -22 91 -39 107 -39 18 0 72 26 146 71 l117 70 84 -83
c45 -45 83 -86 83 -90 0 -5 -31 -60 -70 -124 -38 -64 -70 -125 -70 -136 0 -10
17 -53 39 -96 21 -42 50 -114 65 -158 15 -45 35 -89 45 -98 10 -9 76 -31 147
-50 l129 -32 0 -124 0 -124 -128 -32 c-71 -17 -136 -39 -147 -49 -10 -9 -32
-58 -50 -108 -17 -51 -47 -120 -66 -155 -19 -34 -34 -73 -34 -84 0 -12 32 -75
70 -139 39 -65 70 -121 70 -126 0 -5 -38 -46 -83 -91 l-84 -83 -117 70 c-74
45 -128 71 -146 71 -16 0 -64 -17 -107 -39 -43 -21 -109 -49 -148 -61 -38 -12
-79 -32 -91 -44 -14 -14 -32 -65 -54 -153 l-34 -133 -122 0 -122 0 -32 132
c-22 91 -39 140 -54 154 -11 12 -52 32 -91 44 -38 12 -105 40 -148 61 -43 22
-91 39 -107 39 -18 0 -72 -26 -146 -71 l-117 -70 -84 83 c-45 45 -83 86 -83
91 0 5 32 61 70 126 39 64 70 124 70 133 0 9 -20 58 -45 110 -25 51 -54 122
-65 159 -11 36 -29 74 -39 83 -11 10 -64 29 -118 42 -54 14 -115 30 -135 35
l-38 10 0 119 0 119 38 10 c20 5 81 21 135 35 54 13 107 32 117 41 10 9 31 53
45 98 15 45 45 117 66 159 22 43 39 85 39 95 0 9 -31 70 -70 134 -38 65 -70
121 -70 126 0 5 38 46 83 91 l84 83 117 -70 c72 -44 128 -71 145 -71 16 0 64
18 107 39 44 22 111 49 149 61 39 12 79 32 91 45 14 15 33 69 54 154 l32 131
122 0 122 0 33 -134z"/>
<path d="M3424 2110 c-238 -62 -428 -252 -491 -490 -23 -88 -23 -253 0 -340
135 -498 750 -680 1120 -330 153 143 220 297 220 500 0 203 -67 357 -220 500
-164 155 -410 218 -629 160z m301 -165 c245 -64 411 -314 375 -566 -29 -206
-196 -386 -398 -428 -278 -58 -549 120 -608 399 -7 36 -14 81 -14 100 0 57 27
164 56 227 33 69 147 189 214 223 110 57 259 75 375 45z"/>
<path d="M1034 2637 c-3 -8 -4 -47 -2 -88 l3 -74 83 -3 82 -3 0 91 0 90 -80 0
c-58 0 -82 -4 -86 -13z"/>
<path d="M1380 2560 l0 -90 425 0 426 0 -3 88 -3 87 -422 3 -423 2 0 -90z"/>
<path d="M862 2218 l3 -83 683 -3 682 -2 0 85 0 85 -685 0 -686 0 3 -82z"/>
<path d="M860 1875 l0 -85 555 0 555 0 0 85 0 85 -555 0 -555 0 0 -85z"/>
</g>
</svg>
